<?xml version="1.0" encoding="utf-8"?>
<!-- Generator: Adobe Illustrator 15.0.0, SVG Export Plug-In  -->
<!DOCTYPE svg PUBLIC "-//W3C//DTD SVG 1.1//EN" "http://www.w3.org/Graphics/SVG/1.1/DTD/svg11.dtd" [
	<!ENTITY ns_flows "http://ns.adobe.com/Flows/1.0/">
]>
<svg version="1.1"
	 xmlns="http://www.w3.org/2000/svg" xmlns:xlink="http://www.w3.org/1999/xlink" xmlns:a="http://ns.adobe.com/AdobeSVGViewerExtensions/3.0/"
	 x="0px" y="0px" width="198px" height="68px" viewBox="0.5 0.5 198 68" enable-background="new 0.5 0.5 198 68"
	 xml:space="preserve">
<defs>
</defs>
<path fill="#FFFFFF" d="M37.295,22.068V5.687C33.045,4.218,26.4,3.214,18.827,3.214c-7.341,0-13.909,0.927-18.159,2.473v16.691
	c0,2.473-0.077,6.8,2.086,11.977c2.782,6.491,8.114,11.282,15.764,14.373l0.386,0.154l0.387-0.154
	c7.65-3.014,13.059-7.882,15.841-14.373C37.45,29.1,37.295,24.464,37.295,22.068"/>
<path fill="#582C83" d="M29.104,29.177c0-0.077,0.077-0.154,0.077-0.154v-0.078c0,0-0.077-0.077-0.154-0.077s-0.155,0-0.232,0.077
	v0.078C28.873,28.945,29.027,29.023,29.104,29.177 M29.877,32.423L29.877,32.423c-0.078,0.231-0.232,0.618-0.309,0.772l0.154-0.154
	l0.077,0.154l0.078-0.154l0.154,0.154C30.032,33.041,29.877,32.654,29.877,32.423 M31.809,32.577c0-0.077,0.077-0.154,0.077-0.154
	c-0.154-0.232-0.309-0.541-0.232-0.85c0-0.309,0.232-0.464,0.387-0.464c0.154,0,0.232,0.078,0.232,0.232
	c0.077-0.077,0.154-0.232,0.154-0.309s0-0.232-0.154-0.232c0.231-0.231,0.231-0.772,0-0.927c0.077,0.387-0.232,0.618-0.464,0.85
	c-0.309,0.309-0.386,0.618-0.309,1.004c-0.155-0.386-0.309-0.695-0.232-1.082c0-0.386,0.232-0.773,0.464-0.773
	c0.077,0,0.154,0.078,0.232,0.155c0.154-0.232,0-0.464-0.155-0.464c0.232-0.541-0.155-1.082-0.464-1.159
	c0.078,0.155,0.078,0.31,0.078,0.464c0,0.464-0.464,0.927-0.541,1.623c-0.077,0.773,0.386,1.545,0.85,2.086
	C31.732,32.654,31.732,32.577,31.809,32.577 M28.95,31.341L28.95,31.341c-0.078,0.232-0.232,0.618-0.309,0.773l0.154-0.155
	l0.077,0.155l0.078-0.155l0.154,0.155C29.104,31.959,28.95,31.573,28.95,31.341 M28.332,28.405c0,0.077,0,0.077,0,0.154l0,0
	c0,0.077,0,0.155,0,0.232s0.077,0.077,0.154,0.077v0.077l0,0c-0.077,0-0.154,0-0.154,0c-0.155,0-0.309-0.077-0.232-0.309v-0.077l0,0
	c-0.077,0-0.232,0.155-0.309,0.309c0,0.232,0.077,0.309,0.232,0.309c0.077,0,0.231,0,0.309-0.077c0.231-0.077,0.463-0.155,0.618,0
	c-0.155,0-0.387,0-0.541,0c-0.155,0-0.155,0.309-0.077,0.309c0.077,0,0.541,0,0.541,0c-0.077,0.154-0.309,0.386-0.541,0.463
	c-0.155-0.077-0.619-0.077-0.85,0c-0.232-0.309-0.464-0.85-0.464-1.004c0-0.077,0-0.154,0-0.232
	c0.077-0.154,0.232-0.154,0.309-0.231c0.077-0.078,0-0.155,0-0.232c0,0,0.077-0.155,0-0.155c0,0.078-0.077,0.078-0.154,0.078
	c-0.078,0-0.078,0-0.155,0c-0.077,0.077-0.077,0.154-0.154,0.231c-0.078,0-0.078,0-0.078-0.077s0.078-0.232,0.078-0.309
	s-0.078-0.154-0.232-0.232c-0.077,0-0.077-0.077-0.155-0.077c-0.077,0-0.077,0-0.077,0l0.077,0.077c0,0.078-0.077,0.155-0.077,0.232
	c0,0.155,0.077,0.232,0.077,0.309s0,0.077-0.077,0c-0.077,0-0.155-0.077-0.309-0.077c-0.077,0-0.154,0.077-0.232,0.077
	c0,0-0.154,0-0.154,0.077c0.077,0,0.154,0.078,0.154,0.155s0,0.077,0.078,0.154c0.077,0.078,0.231,0.078,0.309,0.078
	c0.077,0,0.154,0.077,0.154,0.154s0,0.155-0.077,0.232s-0.077,0.232-0.077,0.309c0-0.077,0.077-0.077,0.077-0.077
	c0.077,0,0.077,0.077,0.077,0.231c-0.077,0.078-0.077,0.232,0,0.387c0-0.078,0.077-0.078,0.077-0.078
	c0.078,0,0.078,0.078,0.078,0.232c-0.078,0.077-0.078,0.232,0,0.309c0-0.077,0.077-0.077,0.077-0.077
	c0.077,0,0.077,0.077,0.154,0.154c0.078,0.232,0.232,0.309,0.541,0.309c-0.077,0.232-1.082,0.078-1.391,0
	c-0.078,0-0.155,0-0.155-0.077c-0.077-0.154,0.077-0.309,0-0.463c-0.077-0.078-0.077-0.078-0.154-0.155c0,0-0.155-0.154-0.155-0.077
	s0,0.077-0.077,0.154c-0.077,0-0.077,0.078-0.077,0.155s0.077,0.232,0.077,0.309s0,0.077-0.077,0.077
	c-0.078-0.077-0.232-0.232-0.387-0.232c-0.077,0-0.154,0.078-0.231,0.078c0,0-0.155,0-0.155,0.077c0.077,0,0.155,0.077,0.155,0.154
	c0,0.078,0,0.078,0.077,0.155c0.154,0.077,0.309,0.077,0.463,0.077c0.078,0,0.078,0.078,0,0.078
	c-0.077,0.077-0.231,0.077-0.309,0.231c0,0.078,0,0.155,0,0.232c0,0-0.077,0.155,0,0.155c0-0.078,0.078-0.078,0.155-0.078
	s0.077,0,0.154,0c0.078-0.077,0.078-0.154,0.155-0.231c0-0.078,0.077-0.078,0.154-0.078c0.078,0,0.078,0,0.078,0.078
	c0.077,0.077,0.077,0.231,0.309,0.231v-0.077c0-0.077,0-0.077,0.077-0.077s0.077,0,0.154,0.077c0.078,0.077,0.155,0.155,0.232,0.155
	V31.65c0-0.077,0-0.077,0.078-0.077c0,0,0.077,0,0.154,0.077c0.077,0.078,0.155,0.155,0.232,0.155c0-0.077,0-0.155,0.077-0.155
	s0.309,0.078,0.464,0.155c0,0.386,0.231,0.85,0.695,1.159c0-0.077,0-0.154,0.077-0.154c0.155,0,0.232,0.386,0.618,0.54
	c0-0.077,0-0.154,0.077-0.154c0.078,0,0.078,0,0.155,0.077c0.309,0.155,0.695,0.387,0.85,0.541c0.309-0.077,0.927-0.464,1.236-0.85
	c-0.232-0.077-0.85-0.541-1.082-0.773c-0.386-0.386-0.463-0.85-0.463-1.159c0-0.077,0-0.231,0.077-0.309
	c0.077,0.078,0.309,0.078,0.386,0c-0.154-0.154-0.154-0.386-0.077-0.541c0.077,0.078,0.309,0.078,0.386,0
	c-0.154-0.077-0.231-0.309-0.154-0.463c0.077,0.077,0.231,0.077,0.386,0c-0.155-0.155-0.232-0.309-0.155-0.541
	c0.078,0.077,0.155,0.077,0.31,0.077c-0.078-0.154-0.078-0.309-0.078-0.463c0-0.155-0.077-0.386-0.154-0.464
	c-0.232-0.154-0.773-0.386-1.159-0.386c-0.077,0-0.077,0-0.155,0c-0.077,0-0.154,0.077-0.154,0.077
	c-0.077,0.078-0.232,0.078-0.309,0.155C28.641,28.327,28.409,28.327,28.332,28.405 M29.491,28.327h-0.077c0,0,0,0-0.077,0
	c0,0,0-0.077-0.077-0.077c-0.078,0-0.155,0.077-0.155,0.155c0,0.077,0,0.077,0,0.077l0.077,0.077h0.078l0,0
	c0.077,0,0.077-0.077,0.077-0.077C29.414,28.405,29.414,28.405,29.491,28.327C29.491,28.405,29.491,28.405,29.491,28.327
	L29.491,28.327 M30.727,27.478c0,0,0.078,0.077,0.078,0.154s-0.078,0.232-0.155,0.232s-0.232-0.078-0.232-0.155
	s0.078-0.154,0.155-0.231l-0.232-0.31l-0.386,0.155c0.077,0,0.077,0.077,0.077,0.155c0,0.077-0.077,0.231-0.154,0.231
	c-0.078,0-0.232-0.077-0.232-0.154S29.723,27.4,29.8,27.4c-0.077-0.154-0.386-0.309-0.618-0.386
	c0.155,0.309,0.309,0.695,0.309,1.082c0.232,0,0.928,0.154,1.159,0.386c0.232-0.309,0.541-0.618,0.85-0.696
	C31.268,27.478,30.959,27.478,30.727,27.478 M24.391,30.414c0-2.396,1.932-4.327,4.327-4.327s4.327,1.932,4.327,4.327
	c0,2.395-1.932,4.328-4.327,4.328S24.391,32.809,24.391,30.414 M8.859,28.636l0.078-0.077c0.077-0.077,0.154-0.077,0.231-0.077
	c0,0.077,0,0.154,0,0.154c-0.077,0.078-0.077,0-0.154,0C8.859,28.714,8.859,28.714,8.859,28.636
	C8.859,28.714,8.782,28.714,8.859,28.636 M12.027,28.636c0,0.155-0.077,0.387-0.077,0.387c-0.078,0-0.155,0-0.232,0
	s-0.077,0-0.077,0.077c-0.078,0.154-0.232,0.386-0.309,0.541c0,0.231,0,0.463-0.078,0.772c0,0.077,0,0.232-0.077,0.386
	c-0.077,0.155-0.232,0.232-0.309,0.232c0,0-0.077,0.077,0,0c0.077,0,0.232-0.077,0.309-0.154c0.155-0.078,0.309-0.232,0.541,0
	c0.077,0.077,0.309,0.231,0.463,0.309c0.078,0.077,0.078,0.077,0.232,0.154c0.077,0.077,0.077,0.232,0.155,0.309
	c0.154,0.232,0.154,0.309,0.154,0.386c-0.077,0.078-0.386,0.078-0.463,0c-0.078-0.077,0-0.154-0.078-0.231
	c-0.077-0.077-0.077-0.155-0.154-0.155c-0.077-0.077-0.155-0.154-0.232-0.154c-0.232-0.155-0.232-0.155-0.386-0.078
	c-0.155,0.078-0.386,0.309-0.618,0.387c-0.155,0.077-0.695,0-0.85-0.155c0.077,0.155,0.309,0.309,0.541,0.386
	c0,0.078-0.078,0.464-0.232,0.695c0-0.077-0.077-0.077-0.077-0.077c-0.155,0-0.155,0.31-0.232,0.464
	c0-0.077-0.077-0.077-0.077-0.077c-0.155,0-0.155,0.309-0.309,0.464c0-0.077-0.077-0.077-0.077-0.077
	c-0.078,0-0.155,0.077-0.155,0.077c-0.155,0.231-0.309,0.309-0.464,0.463c-0.618,0-1.468-0.463-1.777-0.85
	c0.541-0.618,1.082-1.236,1.313-1.391c0.154-0.386,0.463-1.082,0.618-1.468c0,0,0-0.078-0.077-0.078
	c-0.078,0.078-0.155,0.078-0.232,0c0-0.077,0-0.231,0-0.386c-0.077,0-0.155,0.077-0.232,0c0.077-0.077,0.077-0.232,0-0.386l0,0
	c-0.077,0-0.154,0.077-0.232,0c0-0.155,0.078-0.232,0-0.387l0,0C8.164,29.1,7.777,29.177,7.7,29.1
	c-0.078-0.078,0.231-0.386,0.541-0.618c-0.231,0.077-0.618,0.232-1.082,0.309c-0.309,0.077-0.927,0.154-1.313,0.077
	c-0.078,0-0.078-0.077,0-0.077c0.231,0,0.541,0,0.772-0.077c0.077,0,0.155-0.078,0-0.078c-0.154,0-0.541-0.077-0.695-0.154
	c-0.077,0,0-0.078,0-0.078c0.232,0,0.463,0.078,0.618,0.078c0.077,0,0.154,0,0.077-0.078c-0.077-0.077-0.154-0.154-0.309-0.231
	v-0.078c0.077,0,0.541,0.232,0.85,0.387c0.077,0,0.154,0,0.154,0c0.078,0,0.078-0.078,0.078-0.078c0-0.077-0.309-0.231-0.464-0.309
	c-0.077-0.077,0-0.077,0.077-0.077C7.159,28.095,7.545,28.25,7.7,28.25c0.154,0,0.154,0,0.154-0.077
	c0-0.078-0.541-0.309-0.695-0.464c0,0,0-0.077,0.077-0.077c0.232,0,0.773,0.386,1.005,0.386c0,0,0.077,0,0.077-0.077
	s-0.464-0.309-0.541-0.386c-0.077,0,0-0.078,0.077-0.078c0.155,0,0.387,0.155,0.541,0.232c0.077,0,0.155,0.077,0.232,0
	c0.077,0,0.154-0.077,0.154-0.309c-0.077-0.232-0.231-0.309-0.386-0.309c-0.154-0.077,0-0.077,0.077-0.077
	c0.232,0.077,0.464,0.154,0.464,0.386c0,0,0,0.077,0,0.155c0,0.154,0.077,0.077,0.154,0c0.155-0.155,0.155-0.387,0.155-0.541
	c0-0.232-0.386-0.309-0.386-0.387l0,0c0.154,0,0.463,0.155,0.541,0.387c0,0.154,0,0.232,0,0.386c0,0,0,0.077,0.078,0
	c0.154-0.154,0.309-0.463,0.231-0.695C9.632,26.396,9.4,26.318,9.4,26.318s0,0,0.078,0c0.154,0,0.463,0.154,0.463,0.463
	c0.077,0.309-0.077,0.85-0.927,1.313c0.386-0.077,0.464-0.077,0.464,0c0.386-0.077,0.695-0.154,0.772-0.154
	c0.077,0.154-0.154,0.232-0.154,0.386c0,0.155,0.309-0.077,0.231,0.077c-0.077,0.155-0.231,0.155-0.309,0.232
	c-0.077,0.077-0.309,0.232-0.463,0.309c0.386,0.309,0.85,0.695,0.85,0.695c0,0.078,0.154,0.232,0.231,0.541l0,0
	c0.078-0.154,0.155-0.463,0.155-0.618c0-0.154,0-0.154,0.077-0.231c0-0.078,0.155-0.155,0.232-0.31
	c0.077-0.154,0.232-0.309,0.309-0.386c0.077-0.154,0.155-0.077,0.309-0.154C11.795,28.636,11.95,28.636,12.027,28.636 M9.246,34.741
	c2.396,0,4.327-1.933,4.327-4.328c0-2.396-1.932-4.327-4.327-4.327s-4.328,1.932-4.328,4.327C4.918,32.809,6.85,34.741,9.246,34.741
	 M30.187,39.687l-11.205-9.118L7.777,39.687c-5.795-6.723-5.718-14.45-5.718-17.618v-5.255l0,0l16.845,13.755L35.75,16.813l0,0
	v5.255C35.904,25.236,35.904,32.964,30.187,39.687 M22.305,21.063c0.154-0.154,0.231-0.231,0.231-0.463s-0.154-0.386-0.386-0.386
	s-0.386,0.154-0.386,0.386C21.841,20.754,21.996,20.909,22.305,21.063 M22.536,21.914c0-0.232-0.077-0.309-0.463-0.541
	c-0.155,0.078-0.309,0.309-0.309,0.464c0,0.309,0.232,0.463,0.386,0.463C22.382,22.3,22.536,22.068,22.536,21.914 M21.918,21.295
	c-0.231-0.154-0.386-0.309-0.386-0.618c0-0.232,0.155-0.618,0.695-0.618c0.387,0,0.618,0.232,0.618,0.541
	c0,0.232-0.077,0.386-0.463,0.541c0.309,0.154,0.463,0.386,0.463,0.618c0,0.386-0.309,0.618-0.772,0.618
	c-0.386,0-0.618-0.309-0.618-0.541C21.455,21.527,21.764,21.373,21.918,21.295 M19.677,21.373h0.077l0.078-0.231h0.927l-0.927,1.854
	l0.154,0.077l1.159-2.241l0,0h-1.391L19.677,21.373z M20.836,18.9c0.772,0,1.7,0.155,2.705,0.155v5.022
	c-1.777-0.154-3.941-0.309-4.405,0.541v-0.232c0.387-0.772,2.318-0.695,4.096-0.541v-0.155c-1.854-0.155-3.555-0.232-4.096,0.464
	v-4.482C19.214,19.055,19.909,18.9,20.836,18.9 M17.591,21.063c0.155-0.154,0.232-0.231,0.232-0.463s-0.155-0.386-0.386-0.386
	c-0.232,0-0.309,0.154-0.309,0.386C17.127,20.754,17.282,20.909,17.591,21.063 M17.823,21.914c0-0.232-0.077-0.309-0.464-0.541
	c-0.154,0.078-0.309,0.309-0.309,0.464c0,0.309,0.232,0.463,0.387,0.463C17.746,22.3,17.823,22.068,17.823,21.914 M17.205,21.295
	c-0.232-0.154-0.386-0.309-0.386-0.618c0-0.232,0.154-0.618,0.695-0.618c0.386,0,0.618,0.232,0.618,0.541
	c0,0.232-0.077,0.386-0.464,0.541c0.309,0.154,0.464,0.386,0.464,0.618c0,0.386-0.309,0.618-0.773,0.618
	c-0.386,0-0.618-0.309-0.618-0.541C16.818,21.527,17.05,21.373,17.205,21.295 M15.118,22.377c0.232,0,0.464,0,0.618,0
	c0.232,0,0.386,0,0.618,0V22.3h-0.077c-0.309,0-0.309,0-0.309-0.231v-0.85c0-0.232,0-0.232,0.232-0.232h0.154v-0.077
	c-0.232,0-0.386,0-0.618,0s-0.386,0-0.618,0v0.077h0.155c0.231,0,0.231,0,0.231,0.232v0.85c0,0.231,0,0.231-0.309,0.231h-0.077
	V22.377z M18.827,24.309v0.232c-0.463-0.85-2.627-0.695-4.404-0.541v-5.023c1.004,0,1.932-0.154,2.705-0.154
	c0.927,0,1.623,0.154,1.7,0.695V24c-0.541-0.695-2.318-0.618-4.095-0.464v0.155C16.509,23.614,18.441,23.536,18.827,24.309
	 M18.441,25.236c-0.077-0.077-0.232-0.541-1.391-0.541h-3.323v-5.409h0.232v5.178h3.091c0.232,0,0.464,0,0.618,0.077
	c0.618,0.077,0.85,0.309,1.005,0.541h0.772c0.155-0.155,0.387-0.387,1.005-0.541c0.154,0,0.386-0.077,0.618-0.077h3.091v-5.178
	h0.231v5.409h-3.322c-1.159,0-1.314,0.464-1.391,0.541H18.441z M33.973,16.813H4.146l-1.932-2.009L6,16.041
	c-0.309-0.927-1.159-1.313-1.777-2.086c-0.309-0.464-0.463-0.927-0.386-1.468c0.077,0.155,0.309,0.386,0.541,0.618
	c0.309,0.155,0.618,0.309,1.159,0.464c0.928,0.231,1.391,0.463,1.777,0.85l-1.932-3.477l3.323,2.164
	c-0.155-1.004-0.85-1.545-1.159-2.473c-0.232-0.541-0.232-1.004-0.077-1.545C7.545,9.318,7.623,9.55,7.854,9.859
	c0.232,0.232,0.541,0.464,1.004,0.696c0.85,0.463,1.236,0.85,1.545,1.313L9.4,7.927l2.705,2.937
	c0.077-1.005-0.386-1.623-0.541-2.627c-0.077-0.618,0.078-1.082,0.309-1.468c0,0.232,0.078,0.541,0.232,0.85
	c0.155,0.309,0.386,0.618,0.773,0.927c0.772,0.618,1.004,1.159,1.159,1.7V6.15l1.854,3.478c0.387-0.85,0-1.7,0.155-2.627
	c0.077-0.618,0.309-1.004,0.695-1.391c-0.077,0.231-0.077,0.463,0,0.85c0.078,0.309,0.232,0.696,0.541,1.082
	c0.541,0.85,0.695,1.391,0.695,2.009l0,0l1.005-4.018l0.927,3.864c0.618-0.773,0.463-1.7,0.85-2.627
	c0.231-0.541,0.618-0.85,1.004-1.082c-0.077,0.154-0.232,0.463-0.232,0.85c0,0.309,0.077,0.695,0.232,1.236
	c0.309,0.927,0.309,1.468,0.232,2.009l1.932-3.632v3.941C24.7,9.473,24.7,8.545,25.318,7.773C25.705,7.309,26.091,7.077,26.555,7
	c-0.155,0.155-0.309,0.386-0.387,0.773c-0.077,0.309-0.154,0.695-0.077,1.236c0.077,1.004-0.077,1.545-0.309,2.086l0,0l2.782-3.014
	l-1.004,3.786c0.85-0.386,1.159-1.236,1.932-1.777c0.464-0.386,0.927-0.541,1.391-0.541c-0.155,0.077-0.386,0.309-0.541,0.618
	c-0.154,0.309-0.309,0.695-0.386,1.159c-0.155,1.005-0.464,1.468-0.85,1.932l0,0l3.477-2.241l-1.932,3.478
	c0.927-0.155,1.391-0.85,2.241-1.236c0.541-0.232,1.005-0.309,1.546-0.155c-0.155,0.077-0.464,0.232-0.696,0.464
	c-0.232,0.231-0.463,0.541-0.618,1.082c-0.386,0.927-0.772,1.314-1.236,1.623l0,0l3.941-1.314L33.973,16.813z M23,40.072
	c-0.077,0-0.155,0.078-0.232,0.078s-0.077,0.077-0.077,0.077s0,0.077,0.077,0.077c-0.077,0.154-0.463,0.154-0.618,0.231
	c-0.154,0.077-0.232,0.155-0.309,0.232s-0.077,0.077-0.154,0.077c-0.232,0.077-0.155,0.231-0.078,0.386
	c0.078,0.155,0.155,0.31,0.309,0.387c0.078,0,0.309,0.154,0.387,0.154c-0.155,0.155-0.309,0.077-0.464,0.155
	c-0.077,0-0.154,0.077-0.232,0.077c-0.154,0-0.231,0-0.309,0c-0.154,0-0.309,0-0.463,0c-0.077,0-0.232,0-0.309-0.077
	c-0.077,0-0.155-0.078-0.155-0.078c-0.154,0,0,0.155,0,0.232c-0.154,0.154-0.541-0.077-0.695-0.154
	c-0.154-0.078-0.232-0.31-0.386-0.31c0,0.154,0,0.31,0,0.464c0,0.541,0,1.004,0.077,1.545c0,0.31,0,0.618,0,0.928h-0.541
	l0.077-2.937c-0.154,0-0.231,0.154-0.386,0.231c-0.077,0.078-0.154,0-0.232,0.078c-0.077,0.077-0.154,0.154-0.231,0.154
	s-0.232,0.077-0.309,0.077c-0.155,0-0.232,0-0.309-0.077c0.077-0.077,0-0.232-0.078-0.232c-0.077-0.077-0.231,0-0.309,0.078
	c-0.386,0.077-0.85-0.155-1.236-0.31c0,0,0.85-0.154,0.85-0.618c0-0.154-0.077-0.231-0.154-0.309
	c-0.078-0.078-0.309-0.155-0.387-0.232c-0.231,0-0.386,0-0.463,0c0-0.077-0.077-0.154-0.155-0.231
	c-0.077-0.077-0.154-0.077-0.309-0.154c-0.154-0.078-0.463-0.232-0.386-0.464c0.155,0.077,0.309,0.077,0.386,0
	c0.078-0.077,0.155-0.154,0.155-0.232c0-0.154-0.155-0.231-0.232-0.386c-0.077-0.077-0.077-0.155-0.154-0.232
	c-0.078-0.077-0.232-0.077-0.232-0.231c0.154,0.077,0.232-0.077,0.077-0.154c-0.077-0.154-0.232-0.154-0.309-0.31
	c-0.077-0.154-0.154-0.309-0.154-0.464c0-0.077,0-0.154,0.077-0.231c0.077,0,0.077,0.077,0.077,0.077
	c0.077,0.154,0.232,0.232,0.386,0.31c0.232,0.077,0.232,0.154,0.464,0.154c0.386,0.077,0.695,0,0.927-0.231
	c0.077,0,0.154-0.078,0.232-0.155c0.077,0.155,0.309,0.31,0.541,0.387c0.155,0.077,0.31,0.31,0.387,0.31
	c0.309,0.231,0.463,0.077,0.463-0.155c0-0.231-0.077-0.464-0.154-0.618c-0.077-0.309-0.155-0.464-0.155-0.772
	c0-0.231-0.154-0.387-0.231-0.464c-0.078-0.154-0.155-0.464,0.077-0.386c0.077,0.077,0.232,0.154,0.386,0.154
	c0.309-0.077,0.309-0.387,0.386-0.618c0-0.154,0-0.232,0.078-0.387c0-0.077,0.077-0.154,0.077-0.154s0.077,0.077,0.154,0.077
	c0.155,0,0.232-0.231,0.232-0.309c0-0.078,0.077-0.232,0.077-0.31c0.078-0.154,0.078-0.309,0.155-0.541
	c0,0.077,0.077,0.31,0.077,0.387c0.077,0.154,0.155,0.386,0.232,0.541c0.077,0.154,0.232,0.154,0.386,0.077
	c0.077,0.154,0.077,0.772,0.232,1.004c0.077,0.155,0.232,0.232,0.309,0.232c0.155,0,0.232,0,0.309-0.077s0.232-0.155,0.309-0.155
	c0,0,0.077,0,0.077,0.078c0,0.154-0.154,0.463-0.232,0.54c-0.077,0.155-0.154,0.31-0.154,0.464c0,0.155-0.077,0.31-0.077,0.464
	s-0.078,0.309-0.078,0.541c0,0.154,0,0.387,0.078,0.464c0.154,0.077,0.386-0.077,0.463-0.232c0.155-0.154,0.309-0.231,0.386-0.386
	c0.078-0.155,0.232-0.387,0.387-0.387c0,0.154,0.154,0.31,0.463,0.31c0.155,0,0.309,0,0.387-0.078c0.154-0.077,0.154-0.077,0.231,0
	c0.309,0.078,0.773-0.309,0.927-0.386c0.078,0.077,0,0.154-0.077,0.309c-0.154,0.232-0.309,0.31-0.309,0.464
	s-0.154,0.387-0.154,0.541c-0.078,0.077-0.232,0.154-0.309,0.231c-0.232,0.155-0.309,0.387-0.232,0.695
	c0.077,0.232,0.309,0.387,0.463,0.387c0.232,0,0.309-0.154,0.387-0.077l-0.078,0.154C23.309,39.918,23.154,39.995,23,40.072
	 M37.295,22.068V5.687C33.045,4.218,26.4,3.214,18.827,3.214c-7.341,0-13.909,1.004-18.159,2.473v16.691
	c0,2.473-0.077,6.8,2.086,11.977c2.782,6.491,8.114,11.282,15.764,14.373l0.386,0.154l0.387-0.154
	c7.65-3.014,13.059-7.882,15.841-14.373C37.45,29.1,37.295,24.464,37.295,22.068"/>
<path fill="#034638" d="M45.486,48.109h18.468v-1.313l0,0c-2.55,0-4.636-0.541-5.023-4.56c-0.077-0.695-0.154-2.009-0.154-2.859
	V12.254c0-0.772,0-2.009,0.077-2.627C59.086,6.459,60.4,4.914,63.8,4.914V3.6H45.641v1.313c3.4,0,4.636,1.468,4.945,4.714
	c0.077,0.618,0.077,1.854,0.077,2.627v27.123c0,0.851-0.077,2.164-0.077,2.859c-0.386,4.096-2.396,4.56-5.023,4.56v1.313H45.486z"/>
<path fill="#034638" d="M99.5,48.109h27.973l0.85-9.736h-1.158c-1.159,4.713-3.478,7.031-7.728,7.341
	c-1.159,0.077-3.323,0.077-4.327,0c-2.55-0.155-3.246-1.392-3.246-3.632V31.341c2.782-0.463,5.409-1.159,7.65-1.159
	c1.854,0,3.555,0.309,5.022,1.159l0.541-0.772c-1.545-1.777-3.709-2.937-6.877-2.937c-1.777,0-3.555,0.309-6.337,0.85V16.427h5.873
	c3.786,0,5.718,1.7,6.723,6.104l0,0h1.159v-8.5h-25.5v1.159c3.478,0.155,4.096,1.7,4.096,4.559v9.813h-0.387
	c-2.163,0-3.786-0.231-5.255-1.545l-0.618,0.618c0.31,0.618,1.392,2.473,4.328,3.246c0.54,0.155,1.313,0.232,1.545,0.232h0.387
	v9.659c0,3.555-1.159,4.945-4.637,5.178v1.159H99.5z"/>
<path fill="#034638" d="M80.182,48.495h2.164L92.7,21.45c1.468-3.864,2.781-5.873,5.563-6.414l0,0v-1.159H87.137v1.159
	c2.473,0.077,3.322,1.391,3.322,3.091c0,1.004-0.387,2.473-0.927,3.863c0,0-4.173,11.282-5.487,14.836l-0.309,0.928L76.55,20.523
	c-0.463-1.159-0.772-2.164-0.772-3.014c0-1.545,1.082-2.473,3.323-2.473v-1.159H62.563v1.236h0.078
	c2.859,0.618,3.786,1.932,5.486,5.873L80.182,48.495z"/>
<path fill="#034638" d="M143.391,43.164c0.928,2.317,1.7,4.172,1.7,6.567c0,1.546-0.464,3.169-1.313,4.56
	c-1.082,1.854-2.782,3.091-6.027,3.091c-0.928,0-1.623,0-2.55-0.077l-1.391,4.404c0.927,0.077,1.699,0.154,2.858,0.154
	c5.409,0,8.114-2.627,10.741-9.35c0.772-1.932,2.241-6.104,4.481-12.363c1.623-4.482,3.632-10.123,6.104-16.846
	c1.854-4.868,3.169-7.805,6.337-8.191v-1.159h-11.359v1.159c2.318,0.154,3.323,1.391,3.323,3.323c0,1.313-0.464,2.782-0.928,4.25
	c-0.928,2.627-5.796,16.536-5.796,16.536l-0.231-0.772c-0.541-1.932-1.082-3.478-2.859-7.496l-4.25-9.891
	c-0.618-1.391-0.927-2.318-0.927-3.4c0-1.7,1.313-2.55,3.322-2.55v-1.159h-16.613v1.159c3.245,0.618,4.096,2.705,5.486,5.641
	C136.204,26.55,140.995,37.368,143.391,43.164z"/>
<rect id="_x3C_Slice_x3E__1_" fill="none" width="198" height="68"/>
</svg>
